<svg xmlns="http://www.w3.org/2000/svg" xmlns:xlink="http://www.w3.org/1999/xlink" viewBox="0 0 26 26"><defs><path id="a" d="M0 0h26v26H0z"/></defs><clipPath id="b"><use xlink:href="#a" overflow="visible"/></clipPath><g clip-path="url(#b)"><path d="M4.6 21.7h14.1c.6 0 1 .5 1 1s-.5 1-1 1H4.1c0 .4-.1.8-.1 1.3 0 .6-.5 1-1 1-.6 0-1-.5-1-1 0-3.3 1.1-6 3.4-8.2 1.5-1.5 3.5-2.7 5.4-3.8-1.9-1.1-3.9-2.3-5.5-3.9C3.1 6.9 2 4.3 2 1c0-.6.5-1 1-1 .6 0 1 .5 1 1 0 6 4.5 8.5 8.9 10.8 1.8-1 3.6-2 5.1-3.2h-6.7c-.6 0-1-.5-1-1s.5-1 1-1h8.8c.5-.7.9-1.4 1.3-2.3H7.3c-.6 0-1-.5-1-1s.5-1 1-1h14.5c.1-.4.1-.9.1-1.3 0-.6.5-1 1-1 .6 0 1 .5 1 1 0 3.3-1.1 6-3.4 8.2-2 1.9-4.6 3.3-7.1 4.7-2 1.1-4 2.2-5.7 3.5h7c.6 0 1 .5 1 1 0 .6-.5 1-1 1H5.8c-.5.7-.9 1.4-1.2 2.3zm11.5-7c.3-.5.9-.6 1.4-.3 3 1.9 6.5 4.9 6.5 10.6 0 .6-.5 1-1 1-.6 0-1-.5-1-1 0-4.7-2.8-7.1-5.5-8.9-.6-.3-.7-.9-.4-1.4z" fill="#e0e0e0"/></g></svg>