<?xml version="1.0" encoding="utf-8"?>
<!-- Generator: Adobe Illustrator 22.1.0, SVG Export Plug-In . SVG Version: 6.00 Build 0)  -->
<svg version="1.1" id="Layer_1" xmlns="http://www.w3.org/2000/svg" xmlns:xlink="http://www.w3.org/1999/xlink" x="0px" y="0px"
	 viewBox="0 0 26 26" style="enable-background:new 0 0 26 26;" xml:space="preserve">
<style type="text/css">
	.st0{fill:#4C51CC;}
</style>
<path id="XMLID_1_" class="st0" d="M21.3,16.9V5.6c0-1.1-0.9-2-2-2h-6.4v7.3c0,1.7-1.4,3-3,3c-1.7,0-3-1.4-3-3V6.5c0-0.6,0.5-1,1-1
	c0.6,0,1,0.5,1,1v4.4c0,0.6,0.5,1,1,1c0.6,0,1-0.5,1-1V3c0-0.6-0.5-1-1-1c-0.5,0-0.9,0.3-1,0.8C8.7,3.3,8.2,3.6,7.7,3.6
	c0,0-0.1,0-0.1,0H6.8c-1.1,0-2,0.9-2,2v16.3c0,1.1,0.9,2,2,2h12.5c1.1,0,2-0.9,2-2c0-0.6,0.5-1,1-1c0.6,0,1,0.5,1,1
	c0,2.2-1.8,4.1-4.1,4.1H6.8c-2.2,0-4.1-1.8-4.1-4.1V5.6c0-2.2,1.8-4.1,4.1-4.1h0.4C7.7,0.6,8.7,0,9.8,0c1.1,0,2.1,0.6,2.7,1.6h6.8
	c2.2,0,4.1,1.8,4.1,4.1v11.2c0,0.6-0.5,1-1,1C21.7,17.9,21.3,17.4,21.3,16.9L21.3,16.9z M7.8,19.9c-0.6,0-1,0.5-1,1c0,0.6,0.5,1,1,1
	h7.4c0.6,0,1-0.5,1-1c0-0.6-0.5-1-1-1H7.8z M19.2,16.9c0-0.6-0.5-1-1-1H7.8c-0.6,0-1,0.5-1,1c0,0.6,0.5,1,1,1h10.4
	C18.7,17.9,19.2,17.5,19.2,16.9z M18.2,11.9h-2.3c-0.6,0-1,0.5-1,1s0.5,1,1,1h2.3c0.6,0,1-0.5,1-1S18.7,11.9,18.2,11.9z M18.2,7.9
	h-2.3c-0.6,0-1,0.5-1,1s0.5,1,1,1h2.3c0.6,0,1-0.5,1-1S18.7,7.9,18.2,7.9z"/>
</svg>
