<?xml version="1.0" encoding="utf-8"?>
<!-- Generator: Adobe Illustrator 24.2.3, SVG Export Plug-In . SVG Version: 6.00 Build 0)  -->
<svg version="1.1" id="Layer_1" xmlns="http://www.w3.org/2000/svg" xmlns:xlink="http://www.w3.org/1999/xlink" x="0px" y="0px"
	 viewBox="0 0 16 16" style="enable-background:new 0 0 16 16;" xml:space="preserve">
<style type="text/css">
	.st0{fill:#4C51CC;}
</style>
<path class="st0" d="M11.6,7.3c0.3,0,0.5-0.2,0.5-0.5s-0.2-0.5-0.5-0.5S11,6.4,11,6.7S11.3,7.3,11.6,7.3z"/>
<path class="st0" d="M12.8,2.1h-0.7V1.5c0-0.3-0.2-0.5-0.5-0.5C11.3,1,11,1.2,11,1.5v0.5H8.5V1.5C8.5,1.2,8.3,1,8,1S7.4,1.2,7.4,1.5
	v0.5H5V1.5C5,1.2,4.7,1,4.4,1C4.1,1,3.9,1.2,3.9,1.5v0.5H3.2C2,2.1,1,3.1,1,4.3v8.5C1,14,2,15,3.2,15h4.2c0.3,0,0.5-0.2,0.5-0.5
	c0-0.3-0.2-0.5-0.5-0.5H3.2c-0.6,0-1.1-0.5-1.1-1.1V4.3c0-0.6,0.5-1.1,1.1-1.1h0.7v0.5c0,0.3,0.2,0.5,0.5,0.5C4.7,4.3,5,4,5,3.7V3.2
	h2.5v0.5C7.4,4,7.7,4.3,8,4.3S8.5,4,8.5,3.7V3.2H11v0.5c0,0.3,0.2,0.5,0.5,0.5c0.3,0,0.5-0.2,0.5-0.5V3.2h0.7c0.6,0,1.1,0.5,1.1,1.1
	v3.1c0,0.3,0.2,0.5,0.5,0.5c0.3,0,0.5-0.2,0.5-0.5V4.3C15,3.1,14,2.1,12.8,2.1z"/>
<path class="st0" d="M11.7,8.4c-1.8,0-3.3,1.5-3.3,3.3c0,1.8,1.5,3.3,3.3,3.3c1.8,0,3.3-1.5,3.3-3.3C15,9.9,13.5,8.4,11.7,8.4z
	 M11.7,13.9c-1.2,0-2.2-1-2.2-2.2s1-2.2,2.2-2.2c1.2,0,2.2,1,2.2,2.2S12.9,13.9,11.7,13.9z"/>
<path class="st0" d="M12.5,11.1h-0.2v-0.6c0-0.3-0.2-0.5-0.5-0.5s-0.5,0.2-0.5,0.5v1.1c0,0.3,0.2,0.5,0.5,0.5h0.8
	c0.3,0,0.5-0.2,0.5-0.5S12.8,11.1,12.5,11.1z"/>
<path class="st0" d="M9.2,7.3c0.3,0,0.5-0.2,0.5-0.5S9.5,6.2,9.2,6.2c-0.3,0-0.5,0.2-0.5,0.5S8.9,7.3,9.2,7.3z"/>
<path class="st0" d="M6.8,9.7c0.3,0,0.5-0.2,0.5-0.5S7.1,8.6,6.8,8.6c-0.3,0-0.5,0.2-0.5,0.5S6.5,9.7,6.8,9.7z"/>
<path class="st0" d="M4.4,7.3C4.7,7.3,5,7,5,6.7S4.7,6.2,4.4,6.2c-0.3,0-0.5,0.2-0.5,0.5S4.1,7.3,4.4,7.3z"/>
<path class="st0" d="M4.4,9.7C4.7,9.7,5,9.4,5,9.1S4.7,8.6,4.4,8.6c-0.3,0-0.5,0.2-0.5,0.5S4.1,9.7,4.4,9.7z"/>
<path class="st0" d="M4.4,12C4.7,12,5,11.8,5,11.5S4.7,11,4.4,11c-0.3,0-0.5,0.2-0.5,0.5S4.1,12,4.4,12z"/>
<path class="st0" d="M6.8,12c0.3,0,0.5-0.2,0.5-0.5S7.1,11,6.8,11c-0.3,0-0.5,0.2-0.5,0.5S6.5,12,6.8,12z"/>
<path class="st0" d="M6.8,7.3c0.3,0,0.5-0.2,0.5-0.5S7.1,6.2,6.8,6.2c-0.3,0-0.5,0.2-0.5,0.5S6.5,7.3,6.8,7.3z"/>
</svg>
