<?xml version="1.0" encoding="utf-8"?>
<!-- Generator: Adobe Illustrator 22.1.0, SVG Export Plug-In . SVG Version: 6.00 Build 0)  -->
<svg version="1.1" id="Layer_1" xmlns="http://www.w3.org/2000/svg" xmlns:xlink="http://www.w3.org/1999/xlink" x="0px" y="0px"
	 viewBox="0 0 26 26" style="enable-background:new 0 0 26 26;" xml:space="preserve">
<style type="text/css">
	.st0{fill:#E0E0E0;}
</style>
<path id="XMLID_1_" class="st0" d="M25,14.8c0.6,0,1-0.5,1-1V7.1c0-2.2-1.8-4.1-4.1-4.1H4.1C1.8,3.1,0,4.9,0,7.1v11.7
	c0,2.2,1.8,4.1,4.1,4.1h17.9c2.2,0,4.1-1.8,4.1-4.1c0-0.6-0.5-1-1-1c-0.6,0-1,0.5-1,1c0,1.1-0.9,2-2,2H4.1c-1.1,0-2-0.9-2-2V7.3
	l8.8,5.5c0.7,0.4,1.4,0.6,2.1,0.6s1.5-0.2,2.1-0.6L24,7.3v6.4C24,14.3,24.4,14.8,25,14.8z M14.1,11.1c-0.7,0.4-1.5,0.4-2.1,0l-9-5.6
	c0.3-0.2,0.7-0.4,1.2-0.4h17.9c0.4,0,0.9,0.1,1.2,0.4L14.1,11.1z"/>
</svg>
