<?xml version="1.0" encoding="utf-8"?>
<!-- Generator: Adobe Illustrator 22.1.0, SVG Export Plug-In . SVG Version: 6.00 Build 0)  -->
<svg version="1.1" id="Layer_1" xmlns="http://www.w3.org/2000/svg" xmlns:xlink="http://www.w3.org/1999/xlink" x="0px" y="0px"
	 viewBox="0 0 26 26" style="enable-background:new 0 0 26 26;" xml:space="preserve">
<style type="text/css">
	.st0{clip-path:url(#XMLID_9_);}
	.st1{fill:#E0E0E0;}
</style>
<g id="XMLID_1_">
	<defs>
		<rect id="XMLID_7_" y="0" width="26" height="26"/>
	</defs>
	<clipPath id="XMLID_9_">
		<use xlink:href="#XMLID_7_"  style="overflow:visible;"/>
	</clipPath>
	<g id="XMLID_2_" class="st0">
		<path id="XMLID_3_" class="st1" d="M4.6,21.7h14.1c0.6,0,1,0.5,1,1s-0.5,1-1,1H4.1c0,0.4-0.1,0.8-0.1,1.3c0,0.6-0.5,1-1,1
			c-0.6,0-1-0.5-1-1c0-3.3,1.1-6,3.4-8.2c1.5-1.5,3.5-2.7,5.4-3.8c-1.9-1.1-3.9-2.3-5.5-3.9C3.1,6.9,2,4.3,2,1c0-0.6,0.5-1,1-1
			c0.6,0,1,0.5,1,1c0,6,4.5,8.5,8.9,10.8c1.8-1,3.6-2,5.1-3.2h-6.7c-0.6,0-1-0.5-1-1s0.5-1,1-1h8.8c0.5-0.7,0.9-1.4,1.3-2.3H7.3
			c-0.6,0-1-0.5-1-1s0.5-1,1-1h14.5c0.1-0.4,0.1-0.9,0.1-1.3c0-0.6,0.5-1,1-1c0.6,0,1,0.5,1,1c0,3.3-1.1,6-3.4,8.2
			c-2,1.9-4.6,3.3-7.1,4.7c-2,1.1-4,2.2-5.7,3.5h7c0.6,0,1,0.5,1,1c0,0.6-0.5,1-1,1H5.8C5.3,20.1,4.9,20.8,4.6,21.7z M16.1,14.7
			c0.3-0.5,0.9-0.6,1.4-0.3c3,1.9,6.5,4.9,6.5,10.6c0,0.6-0.5,1-1,1c-0.6,0-1-0.5-1-1c0-4.7-2.8-7.1-5.5-8.9
			C15.9,15.8,15.8,15.2,16.1,14.7z"/>
	</g>
</g>
</svg>
