<?xml version="1.0" encoding="utf-8"?>
<!-- Generator: Adobe Illustrator 22.1.0, SVG Export Plug-In . SVG Version: 6.00 Build 0)  -->
<svg version="1.1" id="Layer_1" xmlns="http://www.w3.org/2000/svg" xmlns:xlink="http://www.w3.org/1999/xlink" x="0px" y="0px"
	 viewBox="0 0 26 26" style="enable-background:new 0 0 26 26;" xml:space="preserve">
<style type="text/css">
	.st0{clip-path:url(#XMLID_12_);}
	.st1{fill:#E0E0E0;}
</style>
<g id="XMLID_1_">
	<defs>
		<rect id="XMLID_10_" y="0" width="26" height="26"/>
	</defs>
	<clipPath id="XMLID_12_">
		<use xlink:href="#XMLID_10_"  style="overflow:visible;"/>
	</clipPath>
	<g id="XMLID_2_" class="st0">
		<path id="XMLID_3_" class="st1" d="M9.3,5L9.3,5c-0.6,0-1-0.4-1-1c0-0.2,0-1.7,1.1-2.9C10.2,0.4,11.2,0,12.5,0
			c1.2,0,2.4,0.6,3.7,1.2l0,0c1.5,0.7,3.1,1.5,4.8,1.5h0c0.6,0,2.2-0.2,3-2c0.2-0.5,0.8-0.7,1.3-0.5c0.5,0.2,0.7,0.8,0.5,1.3
			c-0.9,2-2.7,3.2-4.9,3.2h0c-2.2,0-4.2-0.9-5.7-1.7v0c-1.1-0.5-2.1-1-2.8-1h0c-0.7,0-1.3,0.2-1.6,0.5C10.3,3.1,10.3,4,10.3,4
			C10.3,4.6,9.9,5,9.3,5z M24.2,6.2c0.4-0.4,1-0.5,1.4-0.1c0.4,0.4,0.5,1,0.1,1.4c-1.5,1.8-3.3,1.3-4.4,1c-1.1-0.3-1.4-0.3-1.7,0.1
			C19.4,8.9,19.1,9,18.8,9c-0.2,0-0.4-0.1-0.6-0.2c-0.4-0.3-0.5-1-0.2-1.4c0.5-0.7,1.2-1,2-1.1c0.6,0,1.2,0.1,1.8,0.3
			C23,6.9,23.6,7,24.2,6.2z M25.5,23.1c-0.2-0.5-0.7-0.9-1.3-0.7c-0.5,0.2-0.9,0.7-0.7,1.3l0.1,0.3h-5.1l-1.8-6.7h1.5
			c0.6,0,1-0.5,1-1c0-0.6-0.5-1-1-1h-2l-0.7-2.5h5.8v2.7c0,0.1,0,0.2,0,0.3l1,3.5c0.1,0.4,0.5,0.7,1,0.7c0.1,0,0.2,0,0.3,0
			c0.5-0.2,0.9-0.7,0.7-1.3l-1-3.4v-3.6c0-0.6-0.5-1-1-1h-6.8v-3c0-0.6-0.5-1-1-1H4.4c-0.6,0-1,0.5-1,1v5.1L0,24.7
			C0,25,0,25.3,0.2,25.6C0.4,25.9,0.7,26,1,26h24c0.3,0,0.6-0.1,0.8-0.4C26,25.3,26,25,26,24.7L25.5,23.1z M2.3,24l2.6-9.2h5.5
			c0.6,0,1-0.5,1-1c0-0.6-0.5-1-1-1h-5V8.6h8v4.2c0,0.1,0,0.2,0,0.3l3,10.9H2.3z M5.7,5C5.7,5,5.6,5,5.7,5c-0.6,0-1-0.4-1.1-1
			c0-0.1-0.1-2.1,1.1-3.7c0.4-0.4,1-0.5,1.4-0.2c0.4,0.4,0.5,1,0.2,1.4C6.6,2.6,6.6,3.9,6.6,4C6.7,4.5,6.2,5,5.7,5z"/>
	</g>
</g>
</svg>
