<svg width="26" height="26" viewBox="0 0 26 26" fill="none" xmlns="http://www.w3.org/2000/svg">
<path d="M17.939 16.845C18.1251 17.1393 18.4491 17.3179 18.7974 17.3179H19.186C19.5343 17.3179 19.8584 17.1393 20.0444 16.8449C20.737 15.7491 21.6149 14.7878 22.4639 13.858C24.2004 11.9564 25.9959 9.99009 25.9988 6.99898C25.9944 3.13975 22.851 0 18.9917 0C15.1324 0 11.9891 3.13975 11.9846 7.00116C11.9875 9.99014 13.783 11.9564 15.5195 13.8581C16.3685 14.7878 17.2463 15.7492 17.939 16.845ZM18.9917 2.03105C21.7323 2.03105 23.9646 4.26075 23.9678 6.99918C23.9656 9.20146 22.5747 10.7247 20.9641 12.4885C20.2995 13.2163 19.6183 13.9623 18.9917 14.7988C18.3651 13.9624 17.684 13.2163 17.0193 12.4885C15.4087 10.7247 14.0178 9.20146 14.0157 7.00131C14.0188 4.26075 16.2511 2.03105 18.9917 2.03105Z" fill="#E0E0E0"/>
<path d="M19.9564 9.13328C19.9564 8.5724 19.5017 8.11776 18.9409 8.11776C18.3809 8.11776 17.9253 7.6622 17.9253 7.10223C17.9253 6.54227 18.3809 6.08671 18.9409 6.08671C19.5008 6.08671 19.9564 6.54227 19.9564 7.10223C19.9564 7.66311 20.411 8.11776 20.9719 8.11776C21.5328 8.11776 21.9874 7.66311 21.9874 7.10223C21.9874 5.42234 20.6208 4.05566 18.9409 4.05566C17.261 4.05566 15.8943 5.42234 15.8943 7.10223C15.8943 8.78213 17.261 10.1488 18.9409 10.1488C19.5017 10.1488 19.9564 9.69411 19.9564 9.13328Z" fill="#E0E0E0"/>
<path d="M24.9831 14.4734C24.4222 14.4734 23.9675 14.9281 23.9675 15.489V22.9259C23.9675 23.2751 23.8008 23.5895 23.5102 23.7883C23.2309 23.9795 22.8934 24.0203 22.5843 23.9001C22.5679 23.8938 22.5512 23.8878 22.5345 23.8822L18.7029 22.6186C17.6251 22.2204 16.4681 22.1624 15.3554 22.4512L10.0388 23.8308C9.34822 24.0101 8.61723 24.0139 7.92477 23.8418L3.57373 22.761C2.66617 22.5356 2.03232 21.725 2.03232 20.7899V3.04885C2.03232 2.70735 2.19426 2.40124 2.47665 2.20918C2.75905 2.01708 3.10324 1.97884 3.42083 2.10432C3.43667 2.11057 3.45262 2.11641 3.46872 2.12184L7.26005 3.40295C8.229 3.77004 9.2784 3.8612 10.2965 3.6664C10.8473 3.56098 11.2085 3.02899 11.1031 2.47817C10.9977 1.9273 10.4656 1.56604 9.91489 1.67151C9.26149 1.79653 8.58787 1.73676 7.96672 1.4987C7.95402 1.49383 7.94128 1.48926 7.92843 1.48494L4.14055 0.205052C3.20821 -0.153362 2.16125 -0.0327061 1.33433 0.529848C0.499588 1.09763 0.0012207 2.03932 0.0012207 3.04885V20.7899C0.0012207 22.6601 1.26887 24.2813 3.084 24.7322L7.43499 25.813C7.93427 25.937 8.44706 25.999 8.9599 25.999C9.49478 25.999 10.0297 25.9316 10.5489 25.7968L15.8655 24.4172C16.5791 24.2321 17.3211 24.2705 18.0116 24.5285C18.0239 24.5331 18.0364 24.5375 18.0489 24.5416L21.8759 25.8037C22.7989 26.152 23.8365 26.0262 24.6571 25.4645C25.4971 24.8897 25.9985 23.9407 25.9985 22.9258V15.489C25.9986 14.9281 25.5439 14.4734 24.9831 14.4734Z" fill="#E0E0E0"/>
<path d="M8.98867 9.3457C8.42759 9.3457 7.97314 9.80014 7.97314 10.3612C7.97314 10.9218 8.42759 11.3767 8.98867 11.3767C9.54975 11.3767 10.0042 10.9218 10.0042 10.3612C10.0042 9.80014 9.54975 9.3457 8.98867 9.3457Z" fill="#E0E0E0"/>
<path d="M8.98867 13.002C8.42759 13.002 7.97314 13.4564 7.97314 14.0175C7.97314 14.5786 8.42759 15.033 8.98867 15.033C9.54975 15.033 10.0042 14.5786 10.0042 14.0175C10.0042 13.4564 9.54975 13.002 8.98867 13.002Z" fill="#E0E0E0"/>
<path d="M8.98867 16.6572C8.42759 16.6572 7.97314 17.1117 7.97314 17.6727C7.97314 18.2338 8.42759 18.6883 8.98867 18.6883C9.54975 18.6883 10.0042 18.2338 10.0042 17.6727C10.0042 17.1117 9.54975 16.6572 8.98867 16.6572Z" fill="#E0E0E0"/>
<path d="M8.98867 5.69043C8.42759 5.69043 7.97314 6.14487 7.97314 6.70595C7.97314 7.26652 8.42759 7.72147 8.98867 7.72147C9.54975 7.72147 10.0042 7.26652 10.0042 6.70595C10.0042 6.14487 9.54975 5.69043 8.98867 5.69043Z" fill="#E0E0E0"/>
<path d="M8.98867 20.3135C8.42759 20.3135 7.97314 20.7679 7.97314 21.329C7.97314 21.8896 8.42759 22.3445 8.98867 22.3445C9.54975 22.3445 10.0042 21.8896 10.0042 21.329C10.0042 20.7679 9.54975 20.3135 8.98867 20.3135Z" fill="#E0E0E0"/>
</svg>
