<?xml version="1.0" encoding="utf-8"?>
<!-- Generator: Adobe Illustrator 22.1.0, SVG Export Plug-In . SVG Version: 6.00 Build 0)  -->
<svg version="1.1" id="Layer_1" xmlns="http://www.w3.org/2000/svg" xmlns:xlink="http://www.w3.org/1999/xlink" x="0px" y="0px"
	 viewBox="0 0 26 26" style="enable-background:new 0 0 26 26;" xml:space="preserve">
<style type="text/css">
	.st0{clip-path:url(#XMLID_11_);}
	.st1{fill:#E0E0E0;}
</style>
<g id="XMLID_1_">
	<defs>
		<rect id="XMLID_9_" y="0" width="26" height="26"/>
	</defs>
	<clipPath id="XMLID_11_">
		<use xlink:href="#XMLID_9_"  style="overflow:visible;"/>
	</clipPath>
	<g id="XMLID_2_" class="st0">
		<path id="XMLID_3_" class="st1" d="M23.5,7.5v0.7C25,9.3,26,11.1,26,13c0,1.9-0.8,3.4-2.2,4.5c-1.2,0.9-2.4,1.2-2.4,1.2
			c-0.1,0-0.1,0-0.2,0c-0.5,0-0.9-0.3-1-0.8c-0.1-0.5,0.2-1.1,0.8-1.2c0.1,0,3-0.7,3-3.7c0-1.4-0.8-2.7-2-3.3
			c-0.4-0.2-0.5-0.5-0.5-0.9c0,0,0,0,0,0c0,0,0,0,0,0V7.5c0-2.7-2.2-4.9-4.9-4.9c-2.4,0-4.5,1.8-4.8,4.1c-0.1,0.4-0.3,0.7-0.7,0.8
			c-0.4,0.1-0.8,0-1-0.3C9.5,6.8,8.8,6.4,8.1,6.4c-1.4,0-2.5,1.1-2.5,2.5v1.8c0,0.6-0.5,1-1,1h0c-1.4,0-2.5,1.1-2.5,2.5
			c0,1.4,1.1,2.5,2.4,2.5H5c0.6,0,1,0.5,1,1c0,0.6-0.5,1-1,1H4.5c-1.2,0-2.3-0.5-3.2-1.3c-0.8-0.8-1.3-2-1.3-3.2
			c0-2.1,1.5-4,3.6-4.4V8.9c0-2.5,2-4.5,4.5-4.5c0.7,0,1.4,0.2,2.1,0.5c0.4-1,1.1-1.9,1.9-2.6c1.3-1.1,2.9-1.7,4.5-1.7
			C20.4,0.6,23.5,3.7,23.5,7.5z M16,15.9v0.8c1.3,0.2,2.2,1.2,2.2,2.5v5.1c0,0.6-0.5,1-1,1H8.7c-0.6,0-1-0.5-1-1v-5.1
			c0-1.3,1-2.4,2.2-2.5v-0.8c0-1.7,1.4-3,3-3C14.7,12.9,16,14.3,16,15.9z M13,15c-0.6,0-1,0.4-1,1v0.8h2v-0.8C14,15.4,13.6,15,13,15
			z M9.8,23.4h6.5v-4.1c0-0.3-0.2-0.5-0.5-0.5h-5.5c-0.3,0-0.5,0.2-0.5,0.5V23.4z"/>
	</g>
</g>
</svg>
