<?xml version="1.0" encoding="utf-8"?>
<!-- Generator: Adobe Illustrator 22.1.0, SVG Export Plug-In . SVG Version: 6.00 Build 0)  -->
<svg version="1.1" id="Layer_1" xmlns="http://www.w3.org/2000/svg" xmlns:xlink="http://www.w3.org/1999/xlink" x="0px" y="0px"
	 viewBox="0 0 26 26" style="enable-background:new 0 0 26 26;" xml:space="preserve">
<style type="text/css">
	.st0{fill:#E0E0E0;}
</style>
<path id="XMLID_1_" class="st0" d="M22.4,9.4H23c1.7,0,3,1.4,3,3v1c0,1.7-1.4,3-3,3h-0.5c-0.1,0-0.3,0.1-0.3,0.2l0,0
	c-0.1,0.1,0,0.3,0.1,0.4l0.4,0.4c0.6,0.6,0.9,1.3,0.9,2.2c0,0.8-0.3,1.6-0.9,2.2l-0.7,0.7c-0.6,0.6-1.3,0.9-2.2,0.9
	s-1.6-0.3-2.2-0.9l-0.4-0.4c-0.1-0.1-0.2-0.1-0.4-0.1l0,0c-0.1,0.1-0.2,0.2-0.2,0.3V23c0,1.7-1.4,3-3,3h-1c-1.7,0-3-1.4-3-3v-0.5
	c0-0.1-0.1-0.3-0.2-0.3l0,0c-0.1-0.1-0.3,0-0.4,0.1l-0.4,0.4c-0.6,0.6-1.3,0.9-2.2,0.9c-0.8,0-1.6-0.3-2.2-0.9l-0.7-0.7
	c-0.6-0.6-0.9-1.3-0.9-2.2c0-0.8,0.3-1.6,0.9-2.2l0.4-0.4c0.1-0.1,0.1-0.2,0.1-0.4l0,0c-0.1-0.1-0.2-0.2-0.3-0.2H3c-1.7,0-3-1.4-3-3
	v-1c0-1.7,1.4-3,3-3h0.5c0.1,0,0.3-0.1,0.3-0.2l0,0c0.1-0.1,0-0.3-0.1-0.4L3.4,8.5c-1.2-1.2-1.2-3.1,0-4.3l0.7-0.7
	c0.6-0.6,1.3-0.9,2.2-0.9s1.6,0.3,2.2,0.9l0.4,0.4c0.1,0.1,0.2,0.1,0.4,0.1l0,0c0.1-0.1,0.2-0.2,0.2-0.3V3c0-1.7,1.4-3,3-3h1
	c1.7,0,3,1.4,3,3v0.5c0,0.1,0.1,0.3,0.2,0.3l0,0c0.1,0.1,0.3,0,0.4-0.1l0.4-0.4c0.6-0.6,1.3-0.9,2.2-0.9c0.8,0,1.6,0.3,2.2,0.9
	l0.7,0.7c1.2,1.2,1.2,3.1,0,4.3l-0.4,0.4c-0.1,0.1-0.1,0.2-0.1,0.4l0,0C22.2,9.4,22.3,9.4,22.4,9.4z M23,14.5c0.6,0,1-0.5,1-1v-1
	c0-0.6-0.5-1-1-1h-0.5c-1,0-1.8-0.6-2.2-1.5l0,0c-0.4-0.9-0.2-1.9,0.5-2.6L21.1,7c0.4-0.4,0.4-1,0-1.4l-0.7-0.7
	c-0.2-0.2-0.4-0.3-0.7-0.3c-0.3,0-0.5,0.1-0.7,0.3l-0.4,0.4c-0.7,0.7-1.7,0.9-2.6,0.5l0,0c-0.9-0.4-1.5-1.2-1.5-2.2V3
	c0-0.6-0.5-1-1-1h-1c-0.6,0-1,0.5-1,1v0.5c0,1-0.6,1.8-1.5,2.2l0,0C9.1,6.1,8.1,5.9,7.4,5.2L7,4.9C6.8,4.7,6.6,4.6,6.3,4.6
	C6,4.6,5.8,4.7,5.6,4.9L4.9,5.6C4.5,6,4.5,6.6,4.9,7l0.4,0.4C5.9,8.1,6.1,9.1,5.8,10l0,0c-0.4,0.9-1.2,1.5-2.2,1.5H3
	c-0.6,0-1,0.5-1,1v1c0,0.6,0.5,1,1,1h0.5c1,0,1.8,0.6,2.2,1.5l0,0c0.4,0.9,0.2,1.9-0.5,2.6L4.9,19c-0.2,0.2-0.3,0.4-0.3,0.7
	c0,0.3,0.1,0.5,0.3,0.7l0.7,0.7c0.2,0.2,0.4,0.3,0.7,0.3c0.3,0,0.5-0.1,0.7-0.3l0.4-0.4c0.5-0.5,1.1-0.7,1.7-0.7
	c0.3,0,0.6,0.1,0.9,0.2l0,0c0.9,0.4,1.5,1.2,1.5,2.2V23c0,0.6,0.5,1,1,1h1c0.6,0,1-0.5,1-1v-0.5c0-1,0.6-1.8,1.5-2.2l0,0
	c0.9-0.4,1.9-0.2,2.6,0.5l0.4,0.4c0.2,0.2,0.4,0.3,0.7,0.3c0.3,0,0.5-0.1,0.7-0.3l0.7-0.7c0.2-0.2,0.3-0.4,0.3-0.7
	c0-0.3-0.1-0.5-0.3-0.7l-0.4-0.4c-0.7-0.7-0.9-1.7-0.5-2.6l0,0c0.4-0.9,1.2-1.5,2.2-1.5H23z M7.1,13c0-3.2,2.6-5.9,5.9-5.9
	c3.2,0,5.9,2.6,5.9,5.9c0,0.6-0.1,1.1-0.2,1.7c-0.2,0.5-0.7,0.8-1.3,0.7c-0.5-0.2-0.8-0.7-0.7-1.3c0.1-0.4,0.2-0.7,0.2-1.1
	c0-2.1-1.7-3.9-3.9-3.9S9.1,10.9,9.1,13s1.7,3.9,3.9,3.9c0.4,0,0.8-0.1,1.2-0.2c0.5-0.2,1.1,0.1,1.3,0.7c0.2,0.5-0.1,1.1-0.7,1.3
	c-0.6,0.2-1.2,0.3-1.8,0.3C9.8,18.9,7.1,16.2,7.1,13z"/>
</svg>
