<svg width="22" height="22" viewBox="0 0 22 22" fill="none" xmlns="http://www.w3.org/2000/svg">
<path fill-rule="evenodd" clip-rule="evenodd" d="M21.6667 9.68381C22.1111 10.1346 22.1111 10.8654 21.6667 11.3162L14.425 18.6619C13.9806 19.1127 13.2601 19.1127 12.8157 18.6619C12.3713 18.2112 12.3713 17.4803 12.8157 17.0295L18.1149 11.6543L1.13793 11.6543C0.509471 11.6543 6.87363e-07 11.1375 7.43094e-07 10.5C7.98824e-07 9.86251 0.509471 9.34573 1.13793 9.34573L18.1149 9.34573L12.8157 3.97046C12.3713 3.51969 12.3713 2.78885 12.8157 2.33808C13.2601 1.88731 13.9806 1.88731 14.425 2.33808L21.6667 9.68381Z" fill="#4C51CC"/>
</svg>
